<svg width="800" height="560" viewBox="0 0 800 560" fill="none" xmlns="http://www.w3.org/2000/svg">
  <rect width="800" height="560" fill="#14191F"/>
  <rect x="36" y="36" width="728" height="488" rx="28" fill="#F4EFE6"/>
  <rect x="72" y="78" width="240" height="28" rx="14" fill="#101418"/>
  <rect x="72" y="126" width="340" height="18" rx="9" fill="#CFC6B8"/>
  <rect x="72" y="158" width="280" height="18" rx="9" fill="#CFC6B8"/>
  <rect x="72" y="204" width="118" height="40" rx="20" fill="#D8FF70"/>
  <rect x="454" y="88" width="252" height="342" rx="26" fill="#101418"/>
  <path d="M505 380V138H531.8L656.2 292.3V138H682V380H655.2L530.8 225.7V380H505Z" fill="#D8FF70"/>
  <circle cx="678" cy="130" r="18" fill="#F4EFE6"/>
  <rect x="72" y="318" width="320" height="22" rx="11" fill="#E2D8C8"/>
  <rect x="72" y="354" width="280" height="22" rx="11" fill="#E2D8C8"/>
  <rect x="72" y="390" width="198" height="22" rx="11" fill="#E2D8C8"/>
</svg>
