<svg width="860" height="920" viewBox="0 0 860 920" fill="none" xmlns="http://www.w3.org/2000/svg">
  <rect width="860" height="920" rx="40" fill="#12171D"/>
  <rect x="42" y="42" width="776" height="836" rx="30" fill="#F4EFE6"/>
  <rect x="84" y="84" width="280" height="340" rx="26" fill="#101418"/>
  <path d="M152 342V164H175.2L268.8 280.1V164H290V342H266.8L173.2 225.9V342H152Z" fill="#D8FF70"/>
  <circle cx="288" cy="160" r="16" fill="#F4EFE6"/>
  <rect x="398" y="86" width="380" height="108" rx="26" fill="#E8DDCC"/>
  <rect x="398" y="218" width="380" height="108" rx="26" fill="#E8DDCC"/>
  <rect x="398" y="350" width="380" height="108" rx="26" fill="#E8DDCC"/>
  <rect x="84" y="462" width="694" height="126" rx="30" fill="#D8FF70"/>
  <rect x="84" y="616" width="220" height="182" rx="26" fill="#EFE6D7"/>
  <rect x="330" y="616" width="218" height="182" rx="26" fill="#EFE6D7"/>
  <rect x="574" y="616" width="204" height="182" rx="26" fill="#101418"/>
  <path d="M632 754V660H645L695.5 724V660H707V754H694L643.5 690V754H632Z" fill="#D8FF70"/>
  <circle cx="705" cy="658" r="8" fill="#F4EFE6"/>
</svg>
